<svg width="38" height="38" viewBox="0 0 38 38" fill="none" xmlns="http://www.w3.org/2000/svg">
<path d="M6.99994 0.944338C6.99994 0.422799 7.44764 0 7.99994 0C8.55224 0 8.99994 0.422799 8.99994 0.944338V6.61037C8.99994 7.13193 8.55224 7.55471 7.99994 7.55471C7.44764 7.55471 6.99994 7.13193 6.99994 6.61037V0.944338Z" fill="#AD1818"/>
<path d="M22.9999 0.944338C22.9999 0.422799 23.4476 0 23.9999 0C24.5522 0 24.9999 0.422799 24.9999 0.944338V6.61037C24.9999 7.13193 24.5522 7.55471 23.9999 7.55471C23.4476 7.55471 22.9999 7.13193 22.9999 6.61037V0.944338Z" fill="#AD1818"/>
<path fill-rule="evenodd" clip-rule="evenodd" d="M9 17.9424H7V19.8311H9V17.9424ZM7 16.0537C5.8954 16.0537 5 16.8993 5 17.9424V19.8311C5 20.8742 5.8954 21.7197 7 21.7197H9C10.1046 21.7197 11 20.8742 11 19.8311V17.9424C11 16.8993 10.1046 16.0537 9 16.0537H7Z" fill="#AD1818"/>
<path fill-rule="evenodd" clip-rule="evenodd" d="M17 17.9424H15V19.8311H17V17.9424ZM15 16.0537C13.8954 16.0537 13 16.8993 13 17.9424V19.8311C13 20.8742 13.8954 21.7197 15 21.7197H17C18.1046 21.7197 19 20.8742 19 19.8311V17.9424C19 16.8993 18.1046 16.0537 17 16.0537H15Z" fill="#AD1818"/>
<path fill-rule="evenodd" clip-rule="evenodd" d="M25 17.9424H23V19.8311H25V17.9424ZM23 16.0537C21.8954 16.0537 21 16.8993 21 17.9424V19.8311C21 20.8742 21.8954 21.7197 23 21.7197H25C26.1046 21.7197 27 20.8742 27 19.8311V17.9424C27 16.8993 26.1046 16.0537 25 16.0537H23Z" fill="#AD1818"/>
<path fill-rule="evenodd" clip-rule="evenodd" d="M9 25.4971H7V27.3858H9V25.4971ZM7 23.6084C5.8954 23.6084 5 24.454 5 25.4971V27.3858C5 28.4289 5.8954 29.2744 7 29.2744H9C10.1046 29.2744 11 28.4289 11 27.3858V25.4971C11 24.454 10.1046 23.6084 9 23.6084H7Z" fill="#AD1818"/>
<path fill-rule="evenodd" clip-rule="evenodd" d="M17 25.4971H15V27.3858H17V25.4971ZM15 23.6084C13.8954 23.6084 13 24.454 13 25.4971V27.3858C13 28.4289 13.8954 29.2744 15 29.2744H17C18.1046 29.2744 19 28.4289 19 27.3858V25.4971C19 24.454 18.1046 23.6084 17 23.6084H15Z" fill="#AD1818"/>
<path fill-rule="evenodd" clip-rule="evenodd" d="M4 5.66602H28C29.1046 5.66602 30 6.51158 30 7.5547V22.6641C30.6906 22.6641 31.3608 22.7467 32 22.9021V7.5547C32 5.46852 30.2091 3.77734 28 3.77734H4C1.79086 3.77734 0 5.46852 0 7.5547V30.2188C0 32.305 1.79086 33.9962 4 33.9962H23.0703C22.7122 33.4116 22.4347 32.7775 22.252 32.1075H4C2.89543 32.1075 2 31.2619 2 30.2188V7.5547C2 6.51158 2.89543 5.66602 4 5.66602Z" fill="#AD1818"/>
<path fill-rule="evenodd" clip-rule="evenodd" d="M31.0001 14.165H1.00006V12.2764H31.0001V14.165Z" fill="#AD1818"/>
<path fill-rule="evenodd" clip-rule="evenodd" d="M30 35.8849C33.3137 35.8849 36 33.3481 36 30.2188C36 27.0896 33.3137 24.5528 30 24.5528C26.6863 24.5528 24 27.0896 24 30.2188C24 33.3481 26.6863 35.8849 30 35.8849ZM30 37.7735C34.4183 37.7735 38 34.3912 38 30.2188C38 26.0465 34.4183 22.6641 30 22.6641C25.5817 22.6641 22 26.0465 22 30.2188C22 34.3912 25.5817 37.7735 30 37.7735Z" fill="#AD1818"/>
<path fill-rule="evenodd" clip-rule="evenodd" d="M30.0001 25.6659C30.5524 25.6659 31.0001 26.0887 31.0001 26.6102V30.6691L33.4516 32.2761C33.9053 32.5734 34.0178 33.1619 33.7028 33.5903C33.3879 34.0188 32.7648 34.125 32.3111 33.8276L29.0001 31.6572V26.6102C29.0001 26.0887 29.4478 25.6659 30.0001 25.6659Z" fill="#AD1818"/>
</svg>
