<svg width="36" height="34" viewBox="0 0 36 34" fill="none" xmlns="http://www.w3.org/2000/svg">
<path d="M35.1553 9.72157H30.9457L29.7757 6.1107C28.5734 2.39828 25.7039 0 22.4646 0H13.5349C10.2963 0 7.42616 2.39828 6.22311 6.1107L5.05311 9.72157H0.844199C0.295057 9.72157 -0.107834 10.3587 0.0257599 11.0158L0.447635 13.0989C0.541151 13.5625 0.878652 13.888 1.26607 13.888H2.67725C1.73295 14.9061 1.12475 16.386 1.12475 18.0543V22.2207C1.12475 23.6199 1.55787 24.8829 2.24975 25.8602V30.5535C2.24975 32.0872 3.25733 33.3311 4.49975 33.3311H6.74975C7.99218 33.3311 8.99976 32.0872 8.99976 30.5535V27.7759H26.9998V30.5535C26.9998 32.0872 28.0074 33.3311 29.2498 33.3311H31.4998C32.7422 33.3311 33.7498 32.0872 33.7498 30.5535V25.8602C34.4417 24.8837 34.8748 23.6208 34.8748 22.2207V18.0543C34.8748 16.386 34.2666 14.9061 33.323 13.888H34.7342C35.1216 13.888 35.4591 13.5625 35.5526 13.0989L35.9745 11.0158C36.1074 10.3587 35.7045 9.72157 35.1553 9.72157ZM10.4011 8.17393C10.9137 6.59244 12.1547 5.55518 13.5349 5.55518H22.4646C23.8449 5.55518 25.0859 6.59244 25.5984 8.17393L26.9998 12.4992H8.99976L10.4011 8.17393ZM6.74975 22.2034C5.39975 22.2034 4.49975 21.0958 4.49975 19.4345C4.49975 17.7731 5.39975 16.6655 6.74975 16.6655C8.09975 16.6655 10.1248 19.1576 10.1248 20.8189C10.1248 22.4803 8.09975 22.2034 6.74975 22.2034ZM29.2498 22.2034C27.8998 22.2034 25.8748 22.4803 25.8748 20.8189C25.8748 19.1576 27.8998 16.6655 29.2498 16.6655C30.5998 16.6655 31.4998 17.7731 31.4998 19.4345C31.4998 21.0958 30.5998 22.2034 29.2498 22.2034Z" fill="#AD1818"/>
</svg>
