<svg width="66" height="66" viewBox="0 0 66 66" fill="none" xmlns="http://www.w3.org/2000/svg">
<path d="M66 33C66 51.2254 51.2254 66 33 66C14.7746 66 0 51.2254 0 33C0 14.7746 14.7746 0 33 0C51.2254 0 66 14.7746 66 33ZM29.1829 50.4732L53.6668 25.9894C54.4982 25.158 54.4982 23.8099 53.6668 22.9785L50.6559 19.9677C49.8245 19.1361 48.4765 19.1361 47.6449 19.9677L27.6774 39.9351L18.3551 30.6127C17.5237 29.7813 16.1756 29.7813 15.3441 30.6127L12.3332 33.6235C11.5018 34.4549 11.5018 35.803 12.3332 36.6344L26.1719 50.4731C27.0035 51.3046 28.3514 51.3046 29.1829 50.4732Z" fill="#AD1818"/>
</svg>
