<svg width="26" height="19" viewBox="0 0 26 19" fill="none" xmlns="http://www.w3.org/2000/svg">
<path d="M2.07941 8.9845H23.9205C23.9534 8.9845 24.0118 8.9974 24.0792 9.0744C24.1483 9.15337 24.2093 9.28577 24.2093 9.45736V9.6124C24.2093 9.784 24.1483 9.9164 24.0792 9.99537C24.0118 10.0724 23.9534 10.0853 23.9205 10.0853H2.07941C2.0465 10.0853 1.98807 10.0724 1.92069 9.99537C1.8516 9.9164 1.79065 9.784 1.79065 9.6124V9.45736C1.79065 9.28577 1.8516 9.15337 1.92069 9.07439C1.98807 8.9974 2.0465 8.9845 2.07941 8.9845Z" fill="#231F20" stroke="black" stroke-width="2"/>
<path d="M2.07941 16.7364H23.9205C23.9534 16.7364 24.0118 16.7493 24.0792 16.8263C24.1483 16.9053 24.2093 17.0377 24.2093 17.2093V17.3643C24.2093 17.5359 24.1483 17.6683 24.0792 17.7473C24.0118 17.8243 23.9534 17.8372 23.9205 17.8372H2.07941C2.0465 17.8372 1.98807 17.8243 1.9207 17.7473C1.8516 17.6683 1.79065 17.5359 1.79065 17.3643V17.2093C1.79065 17.0377 1.8516 16.9053 1.9207 16.8263C1.98807 16.7493 2.0465 16.7364 2.07941 16.7364Z" fill="#231F20" stroke="black" stroke-width="2"/>
<path d="M2.07941 1.23254H23.9205C23.9534 1.23254 24.0118 1.24544 24.0792 1.32244C24.1483 1.40141 24.2093 1.53381 24.2093 1.70541V1.86045C24.2093 2.03205 24.1483 2.16445 24.0792 2.24342C24.0118 2.32042 23.9534 2.33332 23.9205 2.33332H2.07941C2.0465 2.33332 1.98807 2.32042 1.92069 2.24342C1.8516 2.16445 1.79065 2.03205 1.79065 1.86045V1.70541C1.79065 1.53381 1.8516 1.40141 1.92069 1.32244C1.98807 1.24544 2.0465 1.23254 2.07941 1.23254Z" fill="#231F20" stroke="black" stroke-width="2"/>
</svg>
