<svg width="24" height="48" viewBox="0 0 24 48" fill="none" xmlns="http://www.w3.org/2000/svg">
<path d="M20.0495 47.2639C19.552 47.2656 19.0605 47.1558 18.6111 46.9426C18.1617 46.7294 17.7657 46.4182 17.4523 46.0319L1.36995 26.0538C0.880215 25.458 0.612488 24.7107 0.612488 23.9395C0.612488 23.1682 0.880215 22.4209 1.36995 21.8251L18.0184 1.84702C18.5835 1.16704 19.3957 0.739431 20.2761 0.658255C21.1566 0.577078 22.0332 0.848986 22.7132 1.41416C23.3932 1.97934 23.8208 2.79148 23.902 3.67194C23.9832 4.5524 23.7112 5.42904 23.1461 6.10901L8.26239 23.9561L22.6466 41.8032C23.0538 42.292 23.3124 42.8871 23.3919 43.5182C23.4714 44.1494 23.3685 44.7901 23.0953 45.3646C22.8221 45.939 22.39 46.4232 21.8502 46.7598C21.3105 47.0964 20.6856 47.2713 20.0495 47.2639Z" fill="#AD1818"/>
</svg>
