<svg width="25" height="48" viewBox="0 0 25 48" fill="none" xmlns="http://www.w3.org/2000/svg">
<path d="M4.29679 47.264C3.5188 47.2655 2.76484 46.9946 2.16579 46.4982C1.82863 46.2186 1.54993 45.8753 1.34565 45.4879C1.14136 45.1005 1.01551 44.6767 0.975305 44.2405C0.935097 43.8044 0.981319 43.3647 1.11132 42.9465C1.24133 42.5282 1.45256 42.1398 1.73293 41.8033L16.6499 23.9562L2.26568 6.07582C1.9891 5.73523 1.78255 5.34334 1.65792 4.92267C1.53328 4.502 1.49301 4.06085 1.53942 3.62457C1.58584 3.18828 1.71801 2.76547 1.92836 2.38044C2.13871 1.99541 2.42308 1.65574 2.76513 1.38097C3.10964 1.07785 3.51308 0.849204 3.95015 0.709394C4.38721 0.569584 4.84845 0.521624 5.30493 0.568522C5.7614 0.61542 6.20326 0.756165 6.60276 0.981924C7.00226 1.20768 7.35079 1.51358 7.62647 1.88042L23.7088 21.8585C24.1986 22.4543 24.4663 23.2016 24.4663 23.9729C24.4663 24.7441 24.1986 25.4914 23.7088 26.0872L7.06042 46.0653C6.7264 46.4683 6.30208 46.7868 5.82191 46.9951C5.34174 47.2033 4.81923 47.2955 4.29679 47.264Z" fill="#AD1818"/>
</svg>
