<svg width="32" height="32" viewBox="0 0 32 32" fill="none" xmlns="http://www.w3.org/2000/svg">
<path d="M21.8953 2.2627C20.3984 0.803542 18.3077 0 16 0C13.6801 0 11.5825 0.79868 10.0925 2.24881C8.58639 3.71491 7.85257 5.70744 8.02487 7.85901C8.3664 12.1038 11.944 15.5569 16 15.5569C20.0561 15.5569 23.6275 12.1045 23.9744 7.8604C24.149 5.72827 23.4106 3.73991 21.8953 2.2627Z" fill="#AD1818"/>
<path d="M29.5381 31.1138H2.46191C2.10751 31.118 1.75654 31.0508 1.43453 30.9171C1.11252 30.7834 0.827573 30.5865 0.600423 30.3409C0.100437 29.8012 -0.101096 29.0644 0.0481309 28.3192C0.697344 25.0675 2.72344 22.336 5.90797 20.4185C8.73712 18.7162 12.3209 17.7794 16 17.7794C19.6791 17.7794 23.2629 18.7169 26.092 20.4185C29.2766 22.3353 31.3027 25.0668 31.9519 28.3185C32.1011 29.0637 31.8996 29.8005 31.3996 30.3402C31.1725 30.5859 30.8876 30.7829 30.5656 30.9168C30.2436 31.0506 29.8926 31.1179 29.5381 31.1138Z" fill="#AD1818"/>
</svg>
