<svg width="32" height="30" viewBox="0 0 32 30" fill="none" xmlns="http://www.w3.org/2000/svg">
<g id="entypo:user">
<path id="Vector" d="M12.4611 2.64083C10.8807 3.67228 10.456 5.30541 10.5338 6.17451C10.6333 7.23734 10.8791 8.62079 10.8791 8.62079C10.8791 8.62079 10.3922 8.85273 10.3922 9.78595C10.5618 12.1285 11.4547 11.1176 11.6382 12.1449C12.08 14.6199 13.0896 14.1792 13.0896 15.5299C13.0896 17.7797 12.0318 18.8316 8.72933 20.0786C5.416 21.3311 2 22.9069 2 25.6356V27H30V25.6356C30 22.9069 26.5824 21.3311 23.2676 20.08C19.9651 18.833 18.9104 17.7824 18.9104 15.5312C18.9104 14.1805 19.9169 14.6212 20.3602 12.1463C20.5453 11.1189 21.4367 12.1299 21.6093 9.78731C21.6093 8.8541 21.1209 8.62216 21.1209 8.62216C21.1209 8.62216 21.3667 7.2387 21.4647 6.17587C21.5658 5.06119 20.8456 2.68176 17.8869 1.95183C17.3689 1.48795 17.0189 0.749835 18.6118 0.00899091C15.1273 -0.134266 14.3169 1.46476 12.4611 2.64083Z" fill="black"/>
</g>
</svg>
